# File created by Blade
# Date/Time:  Wed Jan 21 17:16:23 2015
# Frame Rate: 120.000 fps
#------------------------------------------------------
:FULLY-SPECIFIED
:DEGREES
2236
root 21.980647 9.951856 -12.231387 -200.596842 -16.964497 -186.453131
Spine 80.966559 9.077656 -1.706592
Head 5.423197 -3.508447 11.882092
LeftShoulder 6.647303 -25.600979 -0.589327
LeftArm 8.264604 42.709651 -65.098189
LeftForeArm 5.809646 -0.000000 1.883664
LeftHand -2.375210 -0.000000 -19.964974
LeftHandThumb1 -26.253704 0.000000 33.147579
RightShoulder 5.071186 -12.672343 2.254443
RightArm 40.585711 -30.378420 35.914914
RightForeArm -37.328944 0.000000 15.560131
RightHand -6.317167 -0.000000 0.845902
RightHandThumb1 -24.326973 -0.000000 -32.862282
LeftUpLeg -88.269235 7.902891 -5.241721
LeftLeg 138.849086 -0.000000 -0.000000
LeftFoot -45.229222 28.497346 -9.315527
LeftToeBase 19.708863 -0.000000 -0.000000
RightUpLeg -91.738564 -2.456292 -14.598050
RightLeg 141.760689 -0.000000 -0.000000
RightFoot -33.434717 -37.936314 1.200042
RightToeBase 18.324638 -0.000000 -0.000000
2237
root 22.013823 10.210753 -12.195209 -199.718163 -16.736454 -186.492317
Spine 80.657434 9.142765 -1.845208
Head 5.163464 -3.251223 11.940302
LeftShoulder 7.326305 -26.289353 -0.475924
LeftArm 8.669412 43.028650 -63.877411
LeftForeArm 5.413007 0.000000 2.168524
LeftHand -2.297765 -0.000000 -20.824854
LeftHandThumb1 -26.253704 0.000000 33.147579
RightShoulder 5.230696 -12.332025 2.219839
RightArm 40.800405 -30.020456 35.165808
RightForeArm -37.473022 -0.000000 16.429232
RightHand -5.127553 -0.000000 3.051025
RightHandThumb1 -24.326973 -0.000000 -32.862282
LeftUpLeg -88.003125 7.976828 -5.191550
LeftLeg 138.035621 -0.000000 -0.000000
LeftFoot -45.614410 28.506368 -9.506145
LeftToeBase 19.867027 -0.000000 -0.000000
RightUpLeg -91.583555 -2.246985 -14.194852
RightLeg 140.945713 -0.000000 -0.000000
RightFoot -33.747483 -38.385111 1.796664
RightToeBase 18.016822 -0.000000 -0.000000
2238
root 22.059144 10.496813 -12.156873 -198.961967 -16.406039 -186.411474
Spine 80.492756 9.216134 -1.902665
Head 4.721415 -2.878527 11.931709
LeftShoulder 8.010114 -26.965278 -0.428738
LeftArm 9.188226 43.353758 -62.445067
LeftForeArm 4.709467 -0.000000 2.475748
LeftHand -2.144976 -0.000000 -21.533430
LeftHandThumb1 -26.253704 0.000000 33.147579
RightShoulder 5.465052 -11.878856 2.081030
RightArm 41.018715 -29.696454 34.402048
RightForeArm -37.734708 -0.000000 17.467257
RightHand -3.936979 0.000000 5.241953
RightHandThumb1 -24.326973 -0.000000 -32.862282
LeftUpLeg -87.591399 8.130361 -4.930930
LeftLeg 137.167864 -0.000000 -0.000000
LeftFoot -45.934150 28.410752 -9.654569
LeftToeBase 19.962269 -0.000000 -0.000000
RightUpLeg -91.279364 -1.931811 -13.769122
RightLeg 140.062805 -0.000000 -0.000000
RightFoot -33.810122 -38.690712 1.936152
RightToeBase 18.701494 -0.000000 -0.000000
2239
root 22.093221 10.782168 -12.118244 -198.188249 -16.116964 -186.343207
Spine 80.216247 9.226636 -2.007957
Head 4.362797 -2.503949 11.924385
LeftShoulder 8.449558 -27.366776 -0.388541
LeftArm 10.329119 44.384262 -60.462458
LeftForeArm 3.131113 -0.000000 2.758411
LeftHand -1.961523 -0.000000 -22.036513
LeftHandThumb1 -26.253704 0.000000 33.147579
RightShoulder 5.694086 -11.409916 1.902430
RightArm 41.306874 -29.538473 33.509310
RightForeArm -37.939504 -0.000000 18.580383
RightHand -4.016450 -0.000000 7.649970
RightHandThumb1 -24.326973 -0.000000 -32.862282
LeftUpLeg -87.214123 8.178290 -4.750513
LeftLeg 136.293306 -0.000000 -0.000000
LeftFoot -46.245573 28.371561 -9.838260
LeftToeBase 20.043151 -0.000000 -0.000000
RightUpLeg -90.970740 -1.685845 -13.317196
RightLeg 139.160094 -0.000000 -0.000000
RightFoot -34.163684 -38.885950 2.677727
RightToeBase 18.429426 -0.000000 -0.000000
2240
root 22.123657 11.015620 -12.078575 -197.120242 -15.850068 -186.367616
Spine 79.404857 9.351526 -2.281985
Head 4.147908 -2.308709 12.110598
LeftShoulder 8.925071 -27.796308 -0.167905
LeftArm 10.976182 44.786865 -58.970720
LeftForeArm 1.850516 -0.000000 3.060548
LeftHand -1.688475 -0.000000 -22.635612
LeftHandThumb1 -26.253704 0.000000 33.147579
RightShoulder 5.735200 -11.251041 1.933029
RightArm 41.707464 -29.323044 32.351634
RightForeArm -37.731284 -0.000000 19.957989
RightHand -3.433504 -0.000000 9.951103
RightHandThumb1 -24.326973 -0.000000 -32.862282
LeftUpLeg -87.306846 8.187361 -4.710050
LeftLeg 135.522247 -0.000000 -0.000000
LeftFoot -46.497860 28.447786 -9.972406
LeftToeBase 20.078099 -0.000000 -0.000000
RightUpLeg -91.142471 -1.551529 -13.030934
RightLeg 138.370901 -0.000000 -0.000000
RightFoot -34.360709 -39.106837 2.748103
RightToeBase 18.495556 -0.000000 -0.000000
2241
root 22.143862 11.281677 -12.038229 -196.225606 -15.707824 -186.314909
Spine 78.763390 9.239496 -2.649268
Head 3.915436 -1.908105 12.233796
LeftShoulder 9.299135 -28.237463 0.079321
LeftArm 11.590784 45.025959 -57.454113
LeftForeArm 0.626421 0.000000 3.516402
LeftHand -1.580747 -0.000000 -23.386286
LeftHandThumb1 -26.253704 0.000000 33.147579
RightShoulder 5.798135 -11.112449 1.926044
RightArm 42.580688 -29.188876 30.660284
RightForeArm -37.220268 -0.000000 21.120356
RightHand -2.233078 -0.000000 12.258682
RightHandThumb1 -24.326973 -0.000000 -32.862282
LeftUpLeg -87.159952 8.023732 -4.609324
LeftLeg 134.677113 -0.000000 -0.000000
LeftFoot -46.694117 28.479820 -10.069042
LeftToeBase 20.162846 -0.000000 -0.000000
RightUpLeg -91.005820 -1.558282 -12.733106
RightLeg 137.519283 -0.000000 -0.000000
RightFoot -34.614103 -39.184104 2.935250
RightToeBase 18.733894 -0.000000 -0.000000
2242
root 22.183401 11.562137 -12.005183 -195.392416 -15.319789 -186.301193
Spine 78.164677 9.447531 -3.042273
Head 3.610903 -1.469144 12.438887
LeftShoulder 9.631690 -28.777600 0.484578
LeftArm 12.035605 44.938304 -56.127121
LeftForeArm -0.128380 -0.000000 3.963435
LeftHand -1.762356 -0.000000 -24.228575
LeftHandThumb1 -26.253704 0.000000 33.147579
RightShoulder 5.841359 -10.989945 2.029681
RightArm 43.598111 -28.841799 28.848964
RightForeArm -35.864413 0.000000 22.250068
RightHand -1.778163 -0.000000 14.578535
RightHandThumb1 -24.326973 -0.000000 -32.862282
LeftUpLeg -86.892261 8.202573 -4.466630
LeftLeg 133.816975 -0.000000 -0.000000
LeftFoot -47.030482 28.327708 -10.359816
LeftToeBase 20.371652 -0.000000 -0.000000
RightUpLeg -90.839885 -1.215874 -12.389425
RightLeg 136.597150 -0.000000 -0.000000
RightFoot -34.809224 -39.380900 3.100466
RightToeBase 19.474486 -0.000000 -0.000000
2243
root 22.218379 11.863758 -11.961998 -194.678948 -15.028139 -186.231748
Spine 77.703237 9.479324 -3.434566
Head 3.246527 -0.983098 12.570637
LeftShoulder 9.948292 -29.275965 0.963001
LeftArm 12.490738 44.496291 -54.910937
LeftForeArm -0.745295 -0.000000 4.408874
LeftHand -2.118614 -0.000000 -24.934276
LeftHandThumb1 -26.253704 0.000000 33.147579
RightShoulder 5.941589 -10.760234 2.019819
RightArm 44.683700 -28.428548 27.019748
RightForeArm -34.193753 -0.000000 23.103910
RightHand -1.106832 -0.000000 16.336966
RightHandThumb1 -24.326973 -0.000000 -32.862282
LeftUpLeg -86.499872 8.287109 -4.347185
LeftLeg 132.851227 -0.000000 -0.000000
LeftFoot -47.223671 28.366885 -10.550941
LeftToeBase 20.363893 -0.000000 -0.000000
RightUpLeg -90.471723 -0.984062 -12.089627
RightLeg 135.630827 -0.000000 -0.000000
RightFoot -35.037233 -39.254925 3.204210
RightToeBase 19.315551 -0.000000 -0.000000
2244
root 22.248456 12.175269 -11.916940 -194.008011 -14.770351 -186.185464
Spine 77.268489 9.467372 -3.867509
Head 2.821856 -0.506651 12.632817
LeftShoulder 10.221943 -29.776187 1.480842
LeftArm 12.947670 43.933291 -53.716602
LeftForeArm -1.146971 0.000000 4.803142
LeftHand -2.291680 -0.000000 -25.506352
LeftHandThumb1 -26.253704 0.000000 33.147579
RightShoulder 6.187974 -10.326963 1.922530
RightArm 45.414347 -27.852530 25.700786
RightForeArm -32.341488 -0.000000 23.764278
RightHand -0.238556 -0.000000 18.056759
RightHandThumb1 -24.326973 -0.000000 -32.862282
LeftUpLeg -86.022121 8.337786 -4.251275
LeftLeg 131.832790 -0.000000 -0.000000
LeftFoot -47.408629 28.418965 -10.661745
LeftToeBase 20.517771 -0.000000 -0.000000
RightUpLeg -90.043517 -0.798738 -11.796806
RightLeg 134.609098 -0.000000 -0.000000
RightFoot -35.144297 -39.336765 3.315900
RightToeBase 19.863916 -0.000000 -0.000000
2245
root 22.268995 12.489526 -11.869454 -193.349447 -14.507266 -186.129587
Spine 76.767911 9.393082 -4.326489
Head 2.482984 0.016840 12.621917
LeftShoulder 10.478074 -30.373898 1.944273
LeftArm 13.225935 43.438086 -52.605119
LeftForeArm -1.502870 -0.000000 5.223935
LeftHand -2.410409 -0.000000 -26.057242
LeftHandThumb1 -26.253704 0.000000 33.147579
RightShoulder 6.518186 -9.892181 1.789582
RightArm 46.154663 -27.258115 24.317489
RightForeArm -29.740541 -0.000000 24.105517
RightHand 0.589861 -0.000000 19.159962
RightHandThumb1 -24.326973 -0.000000 -32.862282
LeftUpLeg -85.542065 8.369054 -4.185855
LeftLeg 130.799544 -0.000000 -0.000000
LeftFoot -47.535817 28.561598 -10.742302
LeftToeBase 20.453497 -0.000000 -0.000000
RightUpLeg -89.595827 -0.600905 -11.550590
RightLeg 133.546149 -0.000000 -0.000000
RightFoot -35.279665 -39.350890 3.422313
RightToeBase 20.032377 -0.000000 -0.000000
